<?xml version="1.0" encoding="UTF-8" standalone="no"?>
<svg
   width="480"
   height="160"
   viewBox="0 0 480 160"
   version="1.1"
   id="svg58"
   xml:space="preserve"
   xmlns="http://www.w3.org/2000/svg"
   xmlns:svg="http://www.w3.org/2000/svg"
   xmlns:rdf="http://www.w3.org/1999/02/22-rdf-syntax-ns#"
   xmlns:cc="http://creativecommons.org/ns#"
   xmlns:dc="http://purl.org/dc/elements/1.1/"><defs
     id="defs62"><rect
       x="12.64637"
       y="36.252926"
       width="59.297424"
       height="36.814987"
       id="rect2713" /><rect
       x="104.82436"
       y="94.145203"
       width="34.004684"
       height="44.402809"
       id="rect2701" /><rect
       x="28.103045"
       y="7.8688526"
       width="49.74239"
       height="31.19438"
       id="rect2695" /><clipPath
       clipPathUnits="userSpaceOnUse"
       id="clipPath565"><path
         d="M 935.472,358.367 H 1801.75 V 1268.25 H 935.472 Z"
         id="path563" /></clipPath></defs><title
     id="title2">Figaro – Scientific Figures (Logo v1)</title><!-- Leaf background --><!-- Axis lines --><!-- Light grid --><!-- Regression line --><!-- Scatter dots – main trend --><!-- Scatter dots – off-trend --><!-- Leaf outline on top --><!-- Wordmark --><metadata
     id="metadata291"><rdf:RDF><cc:Work
         rdf:about=""><dc:title>Figaro – Scientific Figures (Logo v1)</dc:title></cc:Work></rdf:RDF></metadata><g
     id="layer2"><line
       x1="35"
       y1="115"
       x2="125"
       y2="115"
       stroke="#2d6a2d"
       stroke-width="1.1"
       id="line6" /><line
       x1="42"
       y1="57.566273"
       x2="42"
       y2="117"
       stroke="#2d6a2d"
       stroke-width="0.898906"
       id="line8" /><line
       x1="35"
       y1="94"
       x2="125"
       y2="94"
       stroke="#b8ddb8"
       stroke-width="0.6"
       id="line10" /><line
       x1="35"
       y1="73"
       x2="125"
       y2="73"
       stroke="#b8ddb8"
       stroke-width="0.6"
       id="line12" /><line
       x1="51.742344"
       y1="52"
       x2="125"
       y2="52"
       stroke="#b8ddb8"
       stroke-width="0.541323"
       id="line14" /><line
       x1="62.178108"
       y1="45.098564"
       x2="62.178108"
       y2="117"
       stroke="#b8ddb8"
       stroke-width="0.539293"
       id="line16" /><line
       x1="82"
       y1="39.399044"
       x2="82"
       y2="117"
       stroke="#b8ddb8"
       stroke-width="0.56026"
       id="line18" /><line
       x1="102"
       y1="28"
       x2="102"
       y2="117"
       stroke="#b8ddb8"
       stroke-width="0.6"
       id="line20" /><circle
       cx="53.068661"
       cy="95.261726"
       r="3.5"
       fill="#1a6a1a"
       id="circle24" /><circle
       cx="72.330383"
       cy="106.49761"
       r="3"
       fill="#1a6a1a"
       id="circle26" /><circle
       cx="89.879669"
       cy="92.699524"
       r="3.5"
       fill="#1a6a1a"
       id="circle28" /><circle
       cx="80"
       cy="78"
       r="4"
       fill="#1a6a1a"
       id="circle30" /><circle
       cx="90"
       cy="68"
       r="3.5"
       fill="#1a6a1a"
       id="circle32" /><circle
       cx="100.42488"
       cy="64.699524"
       r="3"
       fill="#1a6a1a"
       id="circle34" /><circle
       cx="109"
       cy="50"
       r="3.5"
       fill="#1a6a1a"
       id="circle36" /><circle
       cx="62.343304"
       cy="108.85383"
       r="2.5"
       fill="#3a9a3a"
       id="circle38" /><circle
       cx="69.794022"
       cy="90.30455"
       r="2.5"
       fill="#3a9a3a"
       id="circle40" /><circle
       cx="76"
       cy="80"
       r="2.5"
       fill="#3a9a3a"
       id="circle42" /><circle
       cx="88.137321"
       cy="78.411964"
       r="2.5"
       fill="#3a9a3a"
       id="circle44"
       style="fill:#3a9a3a;fill-opacity:1" /><circle
       cx="108.89259"
       cy="78.248802"
       r="2.5"
       fill="#3a9a3a"
       id="circle46" /><circle
       cx="105.71244"
       cy="57.493542"
       r="2"
       fill="#3a9a3a"
       opacity="0.7"
       id="circle48" /><circle
       cx="47.35622"
       cy="100.9055"
       r="2"
       fill="#3a9a3a"
       opacity="0.6"
       id="circle50" /><text
       x="155"
       y="98"
       font-family="Georgia, serif"
       font-weight="600"
       font-size="46px"
       letter-spacing="-1"
       fill="#0d350d"
       id="text54">Figaro</text><text
       x="158"
       y="120"
       font-family="Georgia, serif"
       font-size="13px"
       letter-spacing="3.5"
       fill="#3a7a3a"
       id="text56">SCIENTIFIC FIGURES</text></g><g
     id="layer1"
     transform="translate(-1.7811006,0.71244024)"><g
       id="g557"
       transform="matrix(0.16081601,0,0,0.15621637,-136.75963,-51.585494)"><g
         id="g559"><g
           id="g561"
           clip-path="url(#clipPath565)"><g
             id="g567"
             transform="translate(947.72,1262.6165)"><path
               d="m 0,0 c -11.9979,-8.6062 -5.2478,-35.1771 -3.9586,-48.0477 8.5577,-42.8986 26.1817,-84.4893 54.4924,-118.125 43.3197,-54.5717 107.6387,-86.2899 171.3322,-111.0189 76.4642,-33.6916 157.3044,-60.9249 224.6445,-111.7272 74.809,-57.7179 136.5481,-132.9149 177.4255,-218.1798 7.4368,-16.2717 14.5844,-32.6883 21.5077,-49.1887 3.5747,-6.5114 3.6293,-17.6399 12.4263,-18.9766 13.9813,4.237 10.6783,24.9526 5.8863,35.4035 -7.4794,20.289 -16.2169,40.105 -25.4294,59.6604 -23.599,49.2317 -53.7115,95.4084 -88.6898,137.3017 -166.9787,203.8933 -355.3688,165.707 -485.8923,308.2101 -25.0601,28.14 -42.4415,62.4563 -52.1391,98.7696 C 7.7676,-28.5913 9.2272,1.8621 0,0 Z"
               style="fill:#419b61;fill-opacity:1;fill-rule:nonzero;stroke:none"
               id="path569" /></g><g
             id="g571"
             transform="translate(947.7809,1261.0833)"><path
               d="m 0,0 c -6.2831,-3.6875 2.7301,-10.6154 6.9571,-10.1564 3.0472,1.6404 2.5806,7.1858 -0.836,8.133 -1.2167,0.4629 -2.5298,0.5182 -3.754,0.9528 C 1.6738,-0.5077 1.0045,0.2428 0,0 Z"
               style="fill:#419b61;fill-opacity:1;fill-rule:nonzero;stroke:none"
               id="path573" /></g><g
             id="g575"
             transform="translate(956.2858,1267.679)"><path
               d="m 0,0 c -0.9219,-0.3125 -1.8477,-0.625 -2.7695,-0.9414 -1.8594,-0.8789 -3.5078,-2.0547 -4.9453,-3.5313 -2.4141,-2.4179 -4.1602,-5.457 -5.3594,-8.6367 -2.7149,-7.1914 -2.75,-15.6523 0,-22.8437 0.5625,-1.4688 1.289,-2.8985 1.8633,-4.375 0.4023,-1.0352 0.8125,-2.0664 1.2226,-3.0977 1.043,-2.6133 2.1211,-5.2148 3.2266,-7.8047 2.6758,-6.2656 5.4961,-12.4765 8.457,-18.6133 5.3359,-11.0664 11.1914,-21.8984 17.5195,-32.4296 8.2657,-13.7579 17.0704,-27.1719 26.7032,-40.0196 11.375,-15.1718 23.707,-29.664 36.9453,-43.2461 12.0469,-12.3593 24.9765,-23.9336 38.6055,-34.5312 14.3515,-11.1602 29.6757,-21.1953 45.7148,-29.7656 16.9375,-9.0469 34.582,-16.5078 53.0586,-21.793 8.6797,-2.4805 17.4961,-4.375 26.4258,-5.6992 0.5898,-0.086 1.1836,-0.1719 1.7773,-0.2539 0.3125,-0.043 0.625,-0.0899 0.9375,-0.1328 2.8203,-0.3711 5.0195,1.1093 6.3359,3.5742 2.254,4.2226 1.6875,11.6523 -3.2109,13.8867 -0.9258,0.4219 -2.0117,0.5039 -3.0078,0.6797 -4.0703,0.7187 -8.1094,1.6523 -12.0859,2.7812 -18.4883,5.2422 -35.7383,13.6368 -51.9493,23.8828 -15.875,10.0352 -30.5664,21.836 -44.3281,34.586 -12.8242,11.8789 -24.9492,24.5 -36.3281,37.7695 -11.832,13.7969 -22.8008,28.3164 -33.0234,43.3359 -8.5391,12.543 -16.4063,25.5118 -23.6641,38.836 -6.1758,11.3398 -11.8984,22.9531 -17.0078,34.8125 -4.1406,9.6094 -7.9844,19.3515 -11.5274,29.1992 -0.1406,0.3867 -0.2773,0.7734 -0.4179,1.1563 -1.5391,4.1601 -4.0899,8.1601 -7.7539,10.7539 C 9.793,-1.2852 8.0078,-0.4687 6.0586,-0.0117 4.9607,0.2339 4.1628,0.3237 3.4086,0.3237 2.3997,0.3237 1.4685,0.1632 0,0 Z"
               style="fill:#419b61;fill-opacity:1;fill-rule:nonzero;stroke:none"
               id="path577" /></g><g
             id="g579"
             transform="translate(1010.8077,1148.6025)"><path
               d="m 0,0 c -39.1376,-20.5175 47.1315,-82.1104 64.2348,-96.6256 55.0709,-40.9826 119.3904,-66.8206 180.5277,-97.179 4.1698,-1.8145 8.2077,-4.036 12.4844,-5.5468 9.9648,-1.5267 14.1534,11.4921 11.9337,19.3754 -1.7899,9.2283 -11.9592,11.8376 -18.84,16.4956 -25.2728,14.6971 -51.1444,28.3018 -77.3123,41.3285 -32.3077,15.9537 -66.2686,30.0848 -94.2424,53.2693 C 62.1945,-53.7025 46.0948,-37.9912 29.5762,-22.7285 20.6061,-16.4182 11.4845,1.0431 0,0 Z"
               style="fill:#419b61;fill-opacity:1;fill-rule:nonzero;stroke:none"
               id="path581" /></g><g
             id="g583"
             transform="translate(1271.4556,1223.6563)"><path
               d="m 0,0 c -74.656,-2.8265 -163.3257,-24.6379 -215.1917,-81.5605 -14.7288,-17.478 -38.1918,-41.1153 -24.972,-65.371 9.2588,-14.1283 18.1625,-2.323 23.5554,7.4365 11.407,16.1019 25.8433,30.0327 42.8236,40.147 115.532,62.3957 254.364,41.0733 371.7189,-5.2525 62.4785,-24.9469 123.8445,-59.0774 165.2258,-113.5025 61.0071,-81.2598 92.1114,-183.8322 99.7411,-284.4196 5.5619,-99.9336 -25.7119,-198.6348 -65.5985,-289.1261 -2.5397,-4.9295 -10.9369,-21.5337 -16.1301,-15.7449 -15.1472,13.3136 -29.1163,27.9512 -45.1287,40.2896 -38.3572,30.9194 -81.6606,54.9103 -125.2698,77.5307 -43.3454,21.715 -86.4079,43.9932 -131.0189,63.0558 -45.2573,20.2555 -91.5403,38.6717 -133.3137,65.7685 -93.1462,59.5726 -177.041,155.1991 -182.4274,270.1719 -0.275,42.4329 10.6236,83.4836 21.8654,123.992 1.4362,6.8224 -4.302,17.891 -11.9923,11.8095 -8.1279,-7.4112 -12.6394,-18.0971 -17.7692,-27.6488 -11.929,-24.3804 -18.8491,-50.9144 -22.9842,-77.6476 -23.4178,-161.4088 98.8646,-305.0026 235.8048,-373.489 29.5129,-15.276 60.98,-26.0802 91.4771,-39.1197 74.6379,-31.5413 147.0149,-68.4683 218.6048,-106.3492 26.3436,-14.9031 51.0825,-32.5757 73.949,-52.3912 8.4261,-6.7437 15.4554,-15.9467 25.7519,-19.8599 43.886,-13.7583 94.3428,156.5018 103.626,190.7639 47.7001,165.4182 -0.858,377.7073 -111.5952,508.8346 C 286.4265,-56.6876 124.5524,-4.521 0,0 Z"
               style="fill:#419b61;fill-opacity:1;fill-rule:nonzero;stroke:none"
               id="path585" /></g></g></g></g></g><text
     xml:space="preserve"
     id="text2693"
     style="font-size:24px;white-space:pre;shape-inside:url(#rect2695);fill:#3a9a3a;fill-rule:evenodd;stroke:#110f0e;stroke-width:2.22;stroke-linejoin:round;stroke-opacity:0;paint-order:stroke fill markers"
     transform="translate(60.421546,27.540984)"><tspan
       x="28.103516"
       y="29.765068"
       id="tspan4589">♫</tspan></text><text
     xml:space="preserve"
     id="text2699"
     style="font-size:24px;white-space:pre;shape-inside:url(#rect2701);fill:#3a9a3a;fill-rule:evenodd;stroke:#110f0e;stroke-width:2.22;stroke-linejoin:round;stroke-opacity:0;paint-order:stroke fill markers"
     transform="rotate(-17.729105,28.956169,126.27471)"><tspan
       x="104.82422"
       y="117.76953"
       id="tspan4591">♩
</tspan><tspan
       x="104.82422"
       y="160.44476"
       id="tspan4595"><tspan
         dx="0 12"
         id="tspan4593">♪
</tspan></tspan><tspan
       x="104.82422"
       y="192.17383"
       id="tspan4599">♩<tspan
   dx="12"
   id="tspan4597">
</tspan></tspan><tspan
       x="104.82422"
       y="222.17383"
       id="tspan4603"><tspan
         dx="0 12"
         id="tspan4601">♪
</tspan></tspan><tspan
       x="104.82422"
       y="253.9029"
       id="tspan4605">♩</tspan></text><path
     style="fill:#1a6a1a;fill-opacity:1;fill-rule:evenodd;stroke:#110f0e;stroke-width:0.623888;stroke-linejoin:round;stroke-opacity:0;paint-order:stroke fill markers"
     d="m 90.548197,58.025009 c -1.240426,-1.155633 -1.029311,-3.127634 0.437739,-4.088882 0.557742,-0.365447 1.0841,-0.432432 2.354536,-0.299646 l 1.636212,0.171018 0.07606,-5.66906 0.07606,-5.66906 4.353608,-1.351786 c 2.394488,-0.743482 4.392278,-1.351785 4.439538,-1.351785 0.0473,0 0.0483,3.278098 0.002,7.284662 -0.0835,7.279124 -0.0841,7.285215 -0.76783,8.012525 -1.9698,2.095277 -5.357887,1.121096 -5.357887,-1.540556 0,-0.296633 0.365661,-0.948578 0.812579,-1.448767 0.677084,-0.757788 1.016828,-0.910827 2.037478,-0.917783 0.67369,-0.0046 1.50943,0.09502 1.8572,0.221363 l 0.63232,0.229711 v -4.37491 c 0,-2.858484 -0.10192,-4.37491 -0.29406,-4.37491 -0.16173,0 -1.80576,0.470355 -3.653394,1.045234 l -3.359336,1.045234 v 5.427493 c 0,6.058357 -0.206762,7.03316 -1.650088,7.779533 -1.210509,0.625978 -2.886225,0.566189 -3.633097,-0.129628 z"
     id="path3839" /><g
     id="layer4"><text
       xml:space="preserve"
       id="text2711"
       style="font-size:24px;white-space:pre;shape-inside:url(#rect2713);fill:#3a993a;fill-opacity:0.6;fill-rule:evenodd;stroke:#110f0e;stroke-width:2.22;stroke-linejoin:round;stroke-opacity:0;paint-order:stroke fill markers"
       transform="rotate(21.070012,-33.98862,175.07795)"><tspan
         x="12.646484"
         y="58.147881"
         id="tspan4607">♪</tspan></text></g></svg>
